<?xml version="1.0" encoding="UTF-8"?>
<!-- Generator: Adobe Illustrator 17.1.0, SVG Export Plug-In . SVG Version: 6.00 Build 0)  -->
<!DOCTYPE svg PUBLIC "-//W3C//DTD SVG 1.1//EN" "http://www.w3.org/Graphics/SVG/1.1/DTD/svg11.dtd">
<svg version="1.1" id="Layer_1" xmlns="http://www.w3.org/2000/svg" xmlns:xlink="http://www.w3.org/1999/xlink" x="0px" y="0px" viewBox="0 86.6 600 626.8" enable-background="new 0 86.6 600 626.8" xml:space="preserve">
<g>
	<g>
		<g>
			<path fill="#01892F" d="M361.4,387.9l-53.8-42.2L157.9,448.2V623l155.5,90.4L468.9,623v-66.3l-107.7-60.3V387.9H361.4z"/>
			<path fill="#01892F" d="M583.6,370.1l-102.3-65.3l-102.3,65.3v112.6l102.3,59.2l102.3-59.2L583.6,370.1L583.6,370.1z"/>
			<path fill="#01892F" d="M545.5,522.2l-60.5,36V618l60.5,36L600,624v-65.7L545.5,522.2z"/>
		</g>
	</g>
	<g>
		<g>
			<path fill="#02975D" d="M261.9,343.9L208,301.7L58.4,404.2v174.8l155.5,90.4l155.5-90.4v-66.3l-107.4-60.3V343.9z M365.4,514.9     v61.5l-151.3,87.9L62.8,576.4V406.2l145.1-99.3l49.9,39.1v106.4v2.5l2.1,1.2L365.4,514.9z"/>
			<path fill="#02975D" d="M484.2,325.8L382,260.5l-102.3,65.3v112.6L382,497.7l102.3-59.2V325.8z M480.1,436L382,492.7L283.9,436     V328.1l98.1-62.6l98.1,62.6V436z"/>
			<path fill="#02975D" d="M446,477.9l-60.5,36v59.9l60.5,36l54.5-29.9v-65.7L446,477.9z M496.5,577.1l-50.3,27.6l-56.5-33.5v-55.1     l56.3-33.3l50.5,33.3L496.5,577.1L496.5,577.1z"/>
		</g>
	</g>
	<g>
		<g>
			<path fill="#00952D" d="M203.5,169.7l-53.8-42.2L0,230v174.8l155.5,90.4l155.5-90.4v-66.3l-107.7-60.3V169.7H203.5z"/>
			<path fill="#00952D" d="M425.6,151.9L323.4,86.6l-102.3,65.3v112.6l102.3,59.2l102.3-59.2V151.9z"/>
			<path fill="#00952D" d="M387.6,304l-60.5,36v59.9l60.5,36l54.5-29.9v-65.7L387.6,304z"/>
		</g>
	</g>
</g>
</svg>