<?xml version="1.0" encoding="UTF-8"?>
<!-- Generator: Adobe Illustrator 17.1.0, SVG Export Plug-In . SVG Version: 6.00 Build 0)  -->
<!DOCTYPE svg PUBLIC "-//W3C//DTD SVG 1.1//EN" "http://www.w3.org/Graphics/SVG/1.1/DTD/svg11.dtd">
<svg version="1.1" id="Layer_1" xmlns="http://www.w3.org/2000/svg" xmlns:xlink="http://www.w3.org/1999/xlink" x="0px" y="0px" viewBox="0 122.7 600 554.6" enable-background="new 0 122.7 600 554.6" xml:space="preserve">
<g>
	
		<linearGradient id="SVGID_1_" gradientUnits="userSpaceOnUse" x1="-0.9793" y1="691.85" x2="218.1787" y2="691.85" gradientTransform="matrix(2.8209 0 0 -2.8209 0 2379.4077)">
		<stop offset="0" style="stop-color:#009246"/>
		<stop offset="1" style="stop-color:#C3D84F"/>
	</linearGradient>
	<path fill="url(#SVGID_1_)" d="M276.2,235.5l-73.1-57.3L0,317.3v237.2l211,122.7l211-122.7v-90l-146.1-81.8V235.5H276.2z    M416.6,468v83.5L211.3,670.8L5.6,551.2V320.5l197.2-135.1l67.7,53v144.4v3.4l2.8,1.7L416.6,468z"/>
	
		<linearGradient id="SVGID_2_" gradientUnits="userSpaceOnUse" x1="-0.9793" y1="742.95" x2="218.1787" y2="742.95" gradientTransform="matrix(2.8209 0 0 -2.8209 0 2379.4077)">
		<stop offset="0" style="stop-color:#009246"/>
		<stop offset="1" style="stop-color:#C3D84F"/>
	</linearGradient>
	<path fill="url(#SVGID_2_)" d="M577.7,211.3l-138.8-88.6l-138.8,88.6v152.9l138.8,80.4l138.8-80.4V211.3z M572.1,360.8l-133.1,77   l-133.1-77V214.4l133.1-84.9l133.1,84.9V360.8z"/>
	
		<linearGradient id="SVGID_3_" gradientUnits="userSpaceOnUse" x1="-0.9793" y1="663.7" x2="218.1787" y2="663.7" gradientTransform="matrix(2.8209 0 0 -2.8209 0 2379.4077)">
		<stop offset="0" style="stop-color:#009246"/>
		<stop offset="1" style="stop-color:#C3D84F"/>
	</linearGradient>
	<path fill="url(#SVGID_3_)" d="M526.1,417.8L444,466.6v81.2l82.1,48.8L600,556v-89.1L526.1,417.8z M594.4,552.3l-68.3,37.5   l-76.7-45.4v-74.8l76.4-45.1l68.5,45.1L594.4,552.3L594.4,552.3z"/>
</g>
</svg>